<?xml version="1.0" standalone="no"?>
<!DOCTYPE svg PUBLIC "-//W3C//DTD SVG 20010904//EN"
 "http://www.w3.org/TR/2001/REC-SVG-20010904/DTD/svg10.dtd">
<svg version="1.0" xmlns="http://www.w3.org/2000/svg"
 width="360.000000pt" height="360.000000pt" viewBox="0 0 360.000000 360.000000"
 preserveAspectRatio="xMidYMid meet">
<metadata>
Created by potrace 1.11, written by Peter Selinger 2001-2013
</metadata>
<g transform="translate(0.000000,360.000000) scale(0.100000,-0.100000)"
fill="#000000" stroke="none">
<path d="M250 2920 l0 -150 1110 0 1110 0 0 150 0 150 -1110 0 -1110 0 0 -150z"/>
<path d="M700 2470 l0 -150 960 0 960 0 0 150 0 150 -960 0 -960 0 0 -150z"/>
<path d="M1160 2020 l0 -150 840 0 840 0 0 150 0 150 -840 0 -840 0 0 -150z"/>
<path d="M1600 1570 l0 -150 720 0 720 0 0 150 0 150 -720 0 -720 0 0 -150z"/>
<path d="M700 1120 l0 -150 750 0 750 0 0 150 0 150 -750 0 -750 0 0 -150z"/>
<path d="M1150 670 l0 -150 1110 0 1110 0 0 150 0 150 -1110 0 -1110 0 0 -150z"/>
</g>
</svg>
